<?xml version="1.0" encoding="UTF-8" standalone="no"?>
<svg
   id="svg43"
   style="clip-rule:evenodd;fill-rule:evenodd;stroke-linejoin:round;stroke-miterlimit:1.41421"
   xml:space="preserve"
   version="1.1"
   viewBox="0 0 536 127"
   height="127"
   width="536"
   sodipodi:docname="crabik-logo-web-2.svg"
   inkscape:version="1.2.2 (b0a8486541, 2022-12-01)"
   inkscape:export-filename="favicon.png"
   inkscape:export-xdpi="96"
   inkscape:export-ydpi="96"
   xmlns:inkscape="http://www.inkscape.org/namespaces/inkscape"
   xmlns:sodipodi="http://sodipodi.sourceforge.net/DTD/sodipodi-0.dtd"
   xmlns="http://www.w3.org/2000/svg"
   xmlns:svg="http://www.w3.org/2000/svg"
   xmlns:rdf="http://www.w3.org/1999/02/22-rdf-syntax-ns#"
   xmlns:cc="http://creativecommons.org/ns#"
   xmlns:dc="http://purl.org/dc/elements/1.1/"><sodipodi:namedview
   pagecolor="#ffffff"
   bordercolor="#666666"
   borderopacity="1"
   objecttolerance="10"
   gridtolerance="10"
   guidetolerance="10"
   inkscape:pageopacity="0"
   inkscape:pageshadow="2"
   inkscape:window-width="1920"
   inkscape:window-height="1011"
   id="namedview39"
   showgrid="false"
   inkscape:zoom="1.3363693"
   inkscape:cx="372.65148"
   inkscape:cy="148.91093"
   inkscape:window-x="0"
   inkscape:window-y="32"
   inkscape:window-maximized="1"
   inkscape:current-layer="svg43"
   inkscape:pagecheckerboard="0"
   inkscape:document-units="px"
   inkscape:showpageshadow="2"
   inkscape:deskcolor="#d1d1d1" /><metadata
   id="metadata49"><rdf:RDF><cc:Work
       rdf:about=""><dc:format>image/svg+xml</dc:format><dc:type
         rdf:resource="http://purl.org/dc/dcmitype/StillImage" /></cc:Work></rdf:RDF></metadata><defs
   id="defs47">
        
        
        
        
        
        
        
        
        
        
    
            
        </defs>
    
<g
   transform="translate(0,-718.11023)"
   id="layer2" /><g
   transform="translate(0,-718.11023)"
   id="layer1" />
   
   <g
   id="g701"
   transform="translate(1.715835,-33.915051)"><g
     transform="matrix(0.15627911,0,0,0.15627911,0.889989,-78.965281)"
     id="layer3"
     style="clip-rule:evenodd;fill-rule:evenodd;stroke-linejoin:round;stroke-miterlimit:1.41421"><g
       transform="translate(-1.6949153,5.0847458)"
       id="g1166"><g
         style="clip-rule:evenodd;fill-rule:evenodd;stroke-linejoin:round;stroke-miterlimit:1.41421"
         id="g4"
         transform="translate(692.75064,1430.5064)">
            <path
   id="path2"
   style="fill:#a52b00;fill-rule:nonzero"
   d="m 0,-322.648 c -114.597,0 -218.172,13.779 -296.172,36.229 v -5.071 c -78,25.095 -127.681,59.959 -127.681,98.506 0,6.077 1.345,12.062 3.703,17.931 l -7.984,14.321 c 0,0 -6.413,8.359 4.935,25.999 10.01,15.554 60.164,76.438 86.628,108.32 11.367,16.348 19.083,26.413 19.757,25.44 1.061,-1.543 -7.064,-32.229 -29.639,-67.242 -10.533,-18.805 -23.358,-43.719 -30.908,-62.12 21.081,13.342 49.189,25.445 81.189,35.861 v -0.159 c 78,22.453 181.575,36.229 296.172,36.229 131.156,0 248.828,-18.046 327.828,-46.491 V -276.153 C 248.828,-304.6 131.156,-322.648 0,-322.648" />
        </g><g
         style="clip-rule:evenodd;fill-rule:evenodd;stroke-linejoin:round;stroke-miterlimit:1.41421"
         id="g8"
         transform="translate(1138.4486,1317.0874)">
            <path
   id="path6"
   style="fill:#a52b00;fill-rule:nonzero"
   d="m 0,-50.399 -13.433,-27.828 c 0.071,-1.056 0.124,-2.114 0.124,-3.175 0,-31.548 -32.805,-60.62 -87.997,-83.901 V 2.499 c 25.751,-10.864 46.645,-22.984 61.586,-36.037 -4.398,17.683 -19.437,53.455 -31.428,78.611 -19.707,35.981 -26.845,67.303 -25.929,68.853 0.584,0.978 7.307,-9.393 17.222,-26.2 C -56.783,54.85 -13.063,-7.914 -4.325,-23.901 5.574,-42.024 0,-50.399 0,-50.399" />
        </g><g
         style="clip-rule:evenodd;fill-rule:evenodd;stroke-linejoin:round;stroke-miterlimit:1.41421"
         id="g12"
         transform="translate(1216.4486,1039.3575)">
            <path
   id="path10"
   style="fill:#f74c00;fill-rule:nonzero"
   d="m 0,227.175 -88.296,-65.043 c -0.83,-2.895 -1.66,-5.787 -2.516,-8.658 l 29.002,-42.016 c 2.961,-4.274 3.558,-9.829 1.635,-14.703 -1.925,-4.85 -6.136,-8.327 -11.117,-9.179 l -49.043,-8.321 c -1.898,-3.879 -3.89,-7.698 -5.889,-11.484 l 20.604,-47.172 c 2.119,-4.806 1.673,-10.39 -1.139,-14.751 -2.797,-4.383 -7.551,-6.942 -12.617,-6.743 l -49.77,1.809 c -2.577,-3.356 -5.194,-6.68 -7.866,-9.946 l 11.438,-50.56 c 1.159,-5.132 -0.302,-10.508 -3.879,-14.238 -3.555,-3.716 -8.722,-5.254 -13.636,-4.05 l -48.478,11.919 c -3.14,-2.775 -6.33,-5.513 -9.559,-8.196 l 1.745,-51.907 c 0.188,-5.254 -2.262,-10.247 -6.468,-13.163 -4.204,-2.934 -9.54,-3.376 -14.138,-1.196 l -45.226,21.502 c -3.64,-2.09 -7.302,-4.16 -11.005,-6.163 l -7.991,-51.148 c -0.812,-5.181 -4.146,-9.584 -8.815,-11.594 -4.655,-2.022 -9.99,-1.367 -14.077,1.71 l -40.321,30.253 c -3.97,-1.318 -7.958,-2.583 -11.996,-3.792 l -17.38,-48.504 c -1.766,-4.945 -5.842,-8.576 -10.81,-9.597 -4.953,-1.012 -10.048,0.703 -13.483,4.539 l -33.938,37.971 c -4.104,-0.471 -8.21,-0.901 -12.327,-1.259 l -26.208,-44.154 c -2.656,-4.472 -7.344,-7.193 -12.397,-7.193 -5.041,0 -9.739,2.721 -12.372,7.193 l -26.214,44.154 c -4.119,0.358 -8.244,0.788 -12.341,1.259 l -33.943,-37.971 c -3.437,-3.836 -8.551,-5.551 -13.487,-4.539 -4.966,1.035 -9.045,4.652 -10.806,9.597 l -17.393,48.504 c -4.027,1.209 -8.017,2.482 -11.997,3.792 l -40.308,-30.253 c -4.098,-3.088 -9.432,-3.741 -14.098,-1.71 -4.65,2.01 -7.997,6.413 -8.803,11.594 l -7.997,51.148 c -3.7,2.003 -7.363,4.062 -11.014,6.163 l -45.222,-21.502 c -4.592,-2.189 -9.952,-1.738 -14.135,1.196 -4.201,2.916 -6.656,7.909 -6.466,13.163 l 1.736,51.907 c -3.219,2.683 -6.403,5.421 -9.558,8.196 l -48.47,-11.919 c -4.925,-1.195 -10.086,0.334 -13.65,4.05 -3.585,3.73 -5.039,9.106 -3.885,14.238 l 11.415,50.56 c -2.649,3.279 -5.27,6.59 -7.839,9.946 l -49.771,-1.809 c -5.023,-0.148 -9.817,2.36 -12.623,6.743 -2.812,4.361 -3.237,9.945 -1.146,14.751 l 20.619,47.172 c -2.003,3.786 -3.992,7.605 -5.906,11.484 l -49.04,8.321 c -4.982,0.841 -9.183,4.316 -11.12,9.179 -1.925,4.874 -1.3,10.429 1.639,14.703 l 29.01,42.016 c -0.224,0.741 -0.43,1.49 -0.653,2.233 l -82.021,87.122 c 0,0 -12.56,9.851 5.73,33.002 16.14,20.421 98.993,101.376 142.752,143.789 18.483,21.532 31.143,34.866 32.466,33.712 2.088,-1.832 -8.871,-41.006 -45.275,-86.97 -28.06,-41.239 -64.478,-104.666 -55.939,-111.977 0,0 9.714,-12.331 29.204,-21.207 0.713,0.571 -0.737,-0.565 0,0 0,0 411.314,189.736 792.846,3.21 43.584,-7.817 69.968,15.529 69.968,15.529 9.099,5.276 -14.463,70.495 -33.838,113.666 -26.353,49.023 -30.217,87.276 -27.982,88.602 1.409,0.842 10.998,-13.747 24.674,-36.966 C -75.469,370.196 -11.675,280.554 0,258.781 13.239,234.094 0,227.175 0,227.175" />
        </g><g
         style="clip-rule:evenodd;fill-rule:evenodd;stroke-linejoin:round;stroke-miterlimit:1.41421"
         id="g16"
         transform="translate(834.43464,1227.0844)">
            <path
   id="path14"
   style="fill-rule:nonzero"
   d="m 0,159.631 c 1.575,-1.342 2.4,-2.139 2.4,-2.139 L -132.25,144.985 C -22.348,0 65.618,116.967 74.988,129.879 v 29.752 z" />
        </g><g
         id="g1114"><path
           id="path18"
           style="clip-rule:evenodd;fill:#f74c00;fill-rule:nonzero;stroke-linejoin:round;stroke-miterlimit:1.41421"
           d="m 316.99664,1226.9784 c 0,0 -111.096,-43.25 -129.876,-89.798 0,0 130.391,-103.7169 -25.621,-213.88595 l -4.229,140.41695 c 0,0 -46.226,-44.5939 -44.186,-122.68295 0,0 -143.773,69.17805 24.476,191.57695 0,0 5.676,65.698 156.977,145.017 z" /></g><g
         style="clip-rule:evenodd;fill-rule:evenodd;stroke-linejoin:round;stroke-miterlimit:1.41421"
         id="g24"
         transform="translate(768.52664,1254.6704)">
            <path
   id="path22"
   style="fill-rule:nonzero"
   d="m 0,-87.016 c 0,0 41.104,-45.009 82.21,0 0,0 32.297,60.013 0,90.016 0,0 -52.85,42.009 -82.21,0 0,0 -35.232,-33.006 0,-90.016" />
        </g><g
         style="clip-rule:evenodd;fill-rule:evenodd;stroke-linejoin:round;stroke-miterlimit:1.41421"
         id="g28"
         transform="translate(816.11464,1184.3434)">
            <path
   id="path26"
   style="fill:#ffffff;fill-rule:nonzero"
   d="m 0,0.008 c 0,17.523 -10.329,31.73 -23.07,31.73 -12.739,0 -23.069,-14.207 -23.069,-31.73 0,-17.529 10.33,-31.738 23.069,-31.738 12.741,0 23.07,14.209 23.07,31.738" />
        </g><g
         style="clip-rule:evenodd;fill-rule:evenodd;stroke-linejoin:round;stroke-miterlimit:1.41421"
         id="g32"
         transform="translate(585.06864,1248.4104)">
            <path
   id="path30"
   style="fill-rule:nonzero"
   d="m 0,-93.046 c 0,0 70.508,-31.219 89.753,38.463 0,0 20.159,81.218 -57.902,85.802 0,0 -99.541,-19.172 -31.851,-124.265" />
        </g><g
         style="clip-rule:evenodd;fill-rule:evenodd;stroke-linejoin:round;stroke-miterlimit:1.41421"
         id="g36"
         transform="translate(620.48164,1185.4984)">
            <path
   id="path34"
   style="fill:#ffffff;fill-rule:nonzero"
   d="m 0,0.002 c 0,18.072 -10.653,32.729 -23.794,32.729 -13.137,0 -23.792,-14.657 -23.792,-32.729 0,-18.078 10.655,-32.731 23.792,-32.731 C -10.653,-32.729 0,-18.076 0,0.002" />
        </g><g
         style="clip-rule:evenodd;fill-rule:evenodd;stroke-linejoin:round;stroke-miterlimit:1.41421"
         id="g40"
         transform="translate(1040.8086,1540.8264)">
            <path
   id="path38"
   style="fill:#f74c00;fill-rule:nonzero"
   d="m 0,-296.808 c 0,0 -14.723,58.643 -106.292,120.267 l -25.678,6.018 c 0,0 -83.066,-151.481 -200.749,19.221 0,0 36.677,-21.354 135,4.65 0,0 -45.23,69.226 -136.342,67.099 0,0 87.313,104.749 220.18,-46.554 0,0 140.455,-54.315 151.845,-170.701 z" />
        </g><g
         id="g1111"><path
           id="path2-1"
           d="m 188.62713,950.02326 a 39.906078,38.539025 0 0 1 -2.83824,-51.55718 l 0.29174,-0.34836 93.23781,90.04379 -0.36071,0.28174 a 39.916255,38.548853 0 0 1 -53.39167,-2.74647 z"
           style="clip-rule:evenodd;fill-rule:evenodd;stroke-width:1.11124;stroke-linejoin:round;stroke-miterlimit:1.41421" /><path
           id="path4"
           d="m 316.42494,839.03177 -87.74188,84.73613 23.10187,22.31048 87.74188,-84.73613 z"
           style="clip-rule:evenodd;fill-rule:evenodd;stroke-width:1.11107;stroke-linejoin:round;stroke-miterlimit:1.41421" /><path
           id="path6-2"
           d="m 423.58574,749.20885 3.80052,13.76511 -86.87496,83.8989 -9.02695,-8.71772 z"
           style="clip-rule:evenodd;fill-rule:evenodd;stroke-width:1.11124;stroke-linejoin:round;stroke-miterlimit:1.41421" /><path
           id="path8"
           d="m 72.427855,1127.8339 -18.008677,17.3929 a 21.903203,21.15287 0 1 1 -30.97524,-29.9152 l 18.008677,-17.3918 a 52.042655,50.259842 0 0 0 30.97524,29.9141 z"
           style="clip-rule:evenodd;fill-rule:evenodd;stroke-width:1.11124;stroke-linejoin:round;stroke-miterlimit:1.41421" /><path
           id="path12"
           d="m 61.518166,1108.4569 c -15.948933,-15.4394 -15.948933,-40.4325 0,-55.8719 L 171.70738,946.17056 c 2.37574,4.25724 5.38211,8.15686 8.92406,11.57557 l 36.94345,35.6779 c 3.54006,3.42084 7.57798,6.32458 11.98619,8.61947 L 119.37073,1108.459 c -15.98638,15.403 -41.866185,15.403 -57.852564,0 z"
           style="clip-rule:evenodd;fill-rule:evenodd;stroke-width:1.11124;stroke-linejoin:round;stroke-miterlimit:1.41421" /></g><path
         d="m 316.99668,1226.9784 c 0,0 -111.096,-43.25 -129.876,-89.798 0,0 130.391,-103.717 -25.62104,-213.88598 l -4.229,140.41698 c -12.20909,39.8341 2.71307,-9.1547 -19.71,68.894 0,0 5.676,65.698 156.97704,145.017 z"
         style="clip-rule:evenodd;fill:#f74c00;fill-rule:nonzero;stroke-linejoin:round;stroke-miterlimit:1.41421"
         id="path18-9" /></g></g><g
     id="svgGroup"
     stroke-linecap="round"
     fill-rule="evenodd"
     font-size="12px"
     stroke="#000"
     stroke-width="0.25mm"
     fill="none"
     style="fill:#000000;fill-opacity:1;fill-rule:nonzero;stroke:#000000;stroke-width:0.25mm"
     transform="matrix(0.99615561,0,0,0.99615561,215.22075,53.353685)"><path
       d="M 18.967,77.445 A 29.149,29.149 0 0 0 27.301,78.6 33.386,33.386 0 0 0 29.99,78.494 25.264,25.264 0 0 0 45.501,71.9 3.65,3.65 0 0 0 45.704,71.7 q 0.882,-0.937 0.747,-2.2 A 3.589,3.589 0 0 0 45.914,67.963 4.67,4.67 0 0 0 45.101,67 4.183,4.183 0 0 0 44.779,66.762 Q 43.813,66.115 42.701,66.2 a 3.945,3.945 0 0 0 -1.47,0.417 5.347,5.347 0 0 0 -1.03,0.683 q -2.5,2.2 -5.75,3.25 a 20.703,20.703 0 0 1 -2.803,0.69 25.224,25.224 0 0 1 -4.347,0.36 23.46,23.46 0 0 1 -2.13,-0.095 19.013,19.013 0 0 1 -8.17,-2.605 q -4.5,-2.7 -7,-7.4 A 20.588,20.588 0 0 1 8.206,56.808 24.688,24.688 0 0 1 7.501,50.8 28.293,28.293 0 0 1 7.778,46.772 22.05,22.05 0 0 1 9.851,40 q 2.35,-4.7 6.6,-7.4 a 16.742,16.742 0 0 1 4.281,-1.938 19.673,19.673 0 0 1 5.569,-0.762 19.639,19.639 0 0 1 7.125,1.263 19.005,19.005 0 0 1 7.475,5.337 q 1,1.2 2.35,1.45 a 3.787,3.787 0 0 0 0.05,0.009 q 0.663,0.114 1.266,-0.028 a 3.14,3.14 0 0 0 1.134,-0.531 6.371,6.371 0 0 0 0.032,-0.023 q 0.504,-0.365 0.863,-0.776 a 3.489,3.489 0 0 0 0.805,-1.551 2.629,2.629 0 0 0 0.064,-0.571 q 0,-0.664 -0.355,-1.289 A 3.803,3.803 0 0 0 46.601,32.5 29.617,29.617 0 0 0 45.351,31.059 24.932,24.932 0 0 0 37.551,25.3 24.953,24.953 0 0 0 34.579,24.14 27.124,27.124 0 0 0 26.301,22.9 30.501,30.501 0 0 0 23.469,23.029 24.486,24.486 0 0 0 12.701,26.55 q -5.9,3.65 -9.3,9.95 A 27.325,27.325 0 0 0 1.069,42.366 32.193,32.193 0 0 0 0.001,50.8 33.591,33.591 0 0 0 0.087,53.23 27.746,27.746 0 0 0 3.551,65 q 3.55,6.3 9.7,9.95 a 25.217,25.217 0 0 0 5.716,2.495 z"
       id="0"
       vector-effect="non-scaling-stroke"
       style="fill:#000000;fill-opacity:1;fill-rule:nonzero" /><path
       d="M 62.401,74.3 V 27.2 a 5.203,5.203 0 0 1 0.116,-1.137 q 0.173,-0.768 0.598,-1.334 A 3.097,3.097 0 0 1 63.401,24.4 q 1,-1 2.8,-1 a 5.203,5.203 0 0 1 1.137,0.117 q 0.768,0.172 1.334,0.597 a 3.097,3.097 0 0 1 0.329,0.286 q 1,1 1,2.8 v 47.1 a 5.203,5.203 0 0 1 -0.117,1.137 q -0.172,0.769 -0.598,1.334 A 3.097,3.097 0 0 1 69.001,77.1 q -1,1 -2.8,1 A 5.203,5.203 0 0 1 65.064,77.983 Q 64.295,77.811 63.73,77.386 A 3.097,3.097 0 0 1 63.401,77.1 q -1,-1 -1,-2.8 z m 7.6,-29.9 h -4.4 q 0.3,-6.2 3.25,-11.1 2.95,-4.9 7.7,-7.7 a 20.383,20.383 0 0 1 10.527,-2.8 23.752,23.752 0 0 1 0.023,0 26.215,26.215 0 0 1 2.639,0.124 q 2.641,0.268 4.345,1.117 a 7.6,7.6 0 0 1 0.116,0.059 4.919,4.919 0 0 1 0.974,0.652 q 1.39,1.215 0.926,3.148 a 4.832,4.832 0 0 1 -0.284,0.798 q -0.397,0.85 -1.066,1.202 a 3.562,3.562 0 0 1 -1.097,0.358 q -0.555,0.09 -1.203,0.042 -1.35,-0.1 -3.05,-0.2 -3.787,-0.338 -7.003,0.307 a 18.628,18.628 0 0 0 -2.947,0.843 q -4.35,1.65 -6.9,5.05 a 12.739,12.739 0 0 0 -2.487,6.646 16.266,16.266 0 0 0 -0.063,1.454 z"
       id="1"
       vector-effect="non-scaling-stroke"
       style="fill:#000000;fill-opacity:1;fill-rule:nonzero" /><path
       d="m 156.901,50.8 -3.1,2.4 a 26.552,26.552 0 0 1 -1.309,8.434 23.995,23.995 0 0 1 -2.041,4.516 q -3.35,5.75 -9.1,9.1 -5.75,3.35 -13.05,3.35 a 27.824,27.824 0 0 1 -8.791,-1.355 25.045,25.045 0 0 1 -5.009,-2.295 q -6.1,-3.65 -9.65,-9.95 a 27.746,27.746 0 0 1 -3.464,-11.77 33.591,33.591 0 0 1 -0.086,-2.43 30.004,30.004 0 0 1 1.22,-8.682 26.242,26.242 0 0 1 2.43,-5.618 q 3.65,-6.3 9.95,-9.95 a 27.298,27.298 0 0 1 12.25,-3.593 32.963,32.963 0 0 1 1.95,-0.057 29.288,29.288 0 0 1 8.799,1.287 25.959,25.959 0 0 1 5.351,2.363 q 6.25,3.65 9.9,9.95 3.65,6.3 3.75,14.3 z m -27.8,20.8 a 21.292,21.292 0 0 0 6.288,-0.902 18.696,18.696 0 0 0 4.062,-1.798 q 4.55,-2.7 7.2,-7.45 a 21.097,21.097 0 0 0 2.608,-9.193 25.358,25.358 0 0 0 0.042,-1.457 23.196,23.196 0 0 0 -0.836,-6.328 19.848,19.848 0 0 0 -1.814,-4.372 q -2.65,-4.7 -7.2,-7.45 a 19.188,19.188 0 0 0 -8.744,-2.695 23.416,23.416 0 0 0 -1.606,-0.055 20.313,20.313 0 0 0 -7.318,1.3 19.097,19.097 0 0 0 -2.982,1.45 q -4.6,2.75 -7.3,7.45 a 20.426,20.426 0 0 0 -2.605,8.493 25.152,25.152 0 0 0 -0.095,2.207 22.172,22.172 0 0 0 1.108,7.088 20.137,20.137 0 0 0 1.592,3.562 q 2.7,4.75 7.3,7.45 4.6,2.7 10.3,2.7 z m 20,2.7 V 57.2 l 1.9,-7.9 5.9,1.5 v 23.5 a 4.269,4.269 0 0 1 -0.182,1.274 3.412,3.412 0 0 1 -0.918,1.476 3.758,3.758 0 0 1 -2.271,1.023 5.073,5.073 0 0 1 -0.529,0.027 4.516,4.516 0 0 1 -1.328,-0.187 3.654,3.654 0 0 1 -1.472,-0.863 3.503,3.503 0 0 1 -1.073,-2.234 4.82,4.82 0 0 1 -0.027,-0.516 z"
       id="2"
       vector-effect="non-scaling-stroke"
       style="fill:#000000;fill-opacity:1;fill-rule:nonzero" /><path
       d="M 171.901,51.1 V 3.9 a 4.993,4.993 0 0 1 0.135,-1.197 3.457,3.457 0 0 1 0.915,-1.653 3.492,3.492 0 0 1 1.798,-0.947 5.124,5.124 0 0 1 1.052,-0.103 4.474,4.474 0 0 1 1.251,0.167 3.442,3.442 0 0 1 1.499,0.883 3.492,3.492 0 0 1 0.947,1.798 5.124,5.124 0 0 1 0.103,1.052 v 29.4 q 3.3,-4.7 8.75,-7.55 a 25.234,25.234 0 0 1 10.086,-2.78 30.203,30.203 0 0 1 2.064,-0.07 27.824,27.824 0 0 1 8.79,1.356 25.045,25.045 0 0 1 5.01,2.294 q 6.1,3.65 9.65,9.95 a 27.746,27.746 0 0 1 3.463,11.77 33.591,33.591 0 0 1 0.087,2.43 30.004,30.004 0 0 1 -1.22,8.682 26.242,26.242 0 0 1 -2.43,5.618 q -3.65,6.3 -9.95,9.95 A 27.265,27.265 0 0 1 202.18,78.502 33.349,33.349 0 0 1 199.601,78.6 29.054,29.054 0 0 1 190.456,77.194 26.266,26.266 0 0 1 185.551,75 q -6.25,-3.6 -9.9,-9.85 -3.65,-6.25 -3.75,-14.05 z m 27.7,20.5 a 20.941,20.941 0 0 0 6.702,-1.047 18.903,18.903 0 0 0 3.698,-1.703 q 4.6,-2.75 7.25,-7.45 a 20.607,20.607 0 0 0 2.523,-8.137 25.39,25.39 0 0 0 0.127,-2.563 22.617,22.617 0 0 0 -1.035,-6.926 20.332,20.332 0 0 0 -1.615,-3.724 q -2.65,-4.75 -7.25,-7.45 -4.6,-2.7 -10.4,-2.7 a 20.697,20.697 0 0 0 -7.163,1.219 19.239,19.239 0 0 0 -3.137,1.481 q -4.6,2.7 -7.2,7.45 a 21.357,21.357 0 0 0 -2.549,9.014 25.735,25.735 0 0 0 -0.051,1.636 q 0,6 2.6,10.7 2.6,4.7 7.2,7.45 a 19.57,19.57 0 0 0 9.768,2.744 23.315,23.315 0 0 0 0.532,0.006 z"
       id="3"
       vector-effect="non-scaling-stroke"
       style="fill:#000000;fill-opacity:1;fill-rule:nonzero" /><path
       d="M 244.201,74.2 V 27.3 a 4.993,4.993 0 0 1 0.135,-1.197 3.457,3.457 0 0 1 0.915,-1.653 3.492,3.492 0 0 1 1.798,-0.947 5.124,5.124 0 0 1 1.052,-0.103 4.474,4.474 0 0 1 1.251,0.167 3.442,3.442 0 0 1 1.499,0.883 3.492,3.492 0 0 1 0.947,1.798 5.124,5.124 0 0 1 0.103,1.052 v 46.9 a 4.993,4.993 0 0 1 -0.136,1.197 3.457,3.457 0 0 1 -0.914,1.653 3.534,3.534 0 0 1 -2.074,1.005 4.913,4.913 0 0 1 -0.676,0.045 4.993,4.993 0 0 1 -1.197,-0.135 3.457,3.457 0 0 1 -1.653,-0.915 3.492,3.492 0 0 1 -0.948,-1.798 5.124,5.124 0 0 1 -0.102,-1.052 z m 0.05,-62.75 a 5.181,5.181 0 0 0 3.75,1.55 q 2.3,0 3.9,-1.6 A 5.5,5.5 0 0 0 252.94,9.977 5.442,5.442 0 0 0 253.501,7.5 6.793,6.793 0 0 0 253.447,6.636 4.766,4.766 0 0 0 251.851,3.55 q -1.65,-1.45 -3.75,-1.45 -2.2,0 -3.85,1.45 a 4.645,4.645 0 0 0 -1.418,2.223 6.109,6.109 0 0 0 -0.232,1.727 q 0,2.3 1.6,3.9 a 6.534,6.534 0 0 0 0.05,0.05 z"
       id="4"
       vector-effect="non-scaling-stroke"
       style="fill:#000000;fill-opacity:1;fill-rule:nonzero" /><path
       d="M 271.501,74.3 V 3.8 a 4.474,4.474 0 0 1 0.166,-1.251 3.442,3.442 0 0 1 0.884,-1.499 3.534,3.534 0 0 1 2.074,-1.005 4.913,4.913 0 0 1 0.676,-0.045 4.474,4.474 0 0 1 1.251,0.167 3.442,3.442 0 0 1 1.499,0.883 3.534,3.534 0 0 1 1.005,2.074 4.913,4.913 0 0 1 0.045,0.676 v 70.5 a 4.474,4.474 0 0 1 -0.167,1.252 3.442,3.442 0 0 1 -0.883,1.498 3.534,3.534 0 0 1 -2.074,1.005 4.913,4.913 0 0 1 -0.676,0.045 4.474,4.474 0 0 1 -1.252,-0.167 3.442,3.442 0 0 1 -1.498,-0.883 3.534,3.534 0 0 1 -1.005,-2.074 4.913,4.913 0 0 1 -0.045,-0.676 z m 40.5,-45.4 -34.2,30.9 -4.7,-5.1 34.2,-30.9 a 4.683,4.683 0 0 1 0.832,-0.618 q 0.758,-0.434 1.555,-0.434 a 2.936,2.936 0 0 1 0.113,0.002 3.01,3.01 0 0 1 1.583,0.536 q 0.408,0.274 0.792,0.687 a 5.686,5.686 0 0 1 0.025,0.027 4.539,4.539 0 0 1 0.641,0.88 q 0.411,0.75 0.411,1.553 a 3.164,3.164 0 0 1 -0.002,0.117 2.967,2.967 0 0 1 -0.78,1.896 4.252,4.252 0 0 1 -0.47,0.454 z m -4.8,48.2 -22.3,-27.4 5.4,-4.8 22.5,27.7 a 4.265,4.265 0 0 1 0.597,0.925 q 0.312,0.669 0.312,1.381 a 3.305,3.305 0 0 1 -0.009,0.244 3.107,3.107 0 0 1 -0.607,1.609 q -0.296,0.41 -0.734,0.791 a 5.914,5.914 0 0 1 -0.059,0.05 4.654,4.654 0 0 1 -0.869,0.59 q -0.893,0.461 -1.831,0.36 -1.4,-0.15 -2.4,-1.45 z"
       id="5"
       vector-effect="non-scaling-stroke"
       style="fill:#000000;fill-opacity:1;fill-rule:nonzero" /></g></g></svg>
